<?xml version="1.0" encoding="utf-8"?>
<!-- Generator: Adobe Illustrator 16.0.0, SVG Export Plug-In . SVG Version: 6.00 Build 0)  -->
<!DOCTYPE svg PUBLIC "-//W3C//DTD SVG 1.1//EN" "http://www.w3.org/Graphics/SVG/1.1/DTD/svg11.dtd">
<svg version="1.1" id="圖層_1" xmlns="http://www.w3.org/2000/svg" xmlns:xlink="http://www.w3.org/1999/xlink" x="0px" y="0px"
	 width="507.177px" height="198.425px" viewBox="0 0 507.177 198.425" enable-background="new 0 0 507.177 198.425"
	 xml:space="preserve">
<g>
	<g>
		<g>
			<rect x="384.265" y="38.334" fill="#FFFFFF" width="26.299" height="116.087"/>
			<path fill="#FFFFFF" d="M330.822,61.901c-25.506,0-46.257,20.743-46.257,46.254c0,25.515,20.751,46.266,46.257,46.266
				c25.511,0,46.263-20.751,46.263-46.266C377.085,82.644,356.333,61.901,330.822,61.901z M330.822,128.896
				c-11.436,0-20.743-9.304-20.743-20.741c0-11.44,9.307-20.743,20.743-20.743c11.441,0,20.743,9.302,20.743,20.743
				C351.565,119.593,342.263,128.896,330.822,128.896z"/>
			<path fill="#FFFFFF" d="M468.498,106.416l-10.055-21.88h-0.887h-11.331v-0.903V63.737v-8.955V41.822v-3.488h-26.294v3.488v12.961
				v8.955v19.895v19.797v24.373c0,17.189,8.773,26.436,26.294,26.619v-29.663v-18.342h11.331H468.498z"/>
			<path fill="#FFFFFF" d="M160.67,59.716c-24.3,0-44.07,19.776-44.07,44.07v6.554c0,24.308,19.77,44.081,44.07,44.081
				c12.159,0,23.17-4.944,31.15-12.93l-0.027-0.021c1.468-1.455,2.863-2.979,4.112-4.607l-17.634-13.46
				c-0.668,0.869-1.409,1.683-2.201,2.452c-3.955,3.923-9.398,6.359-15.401,6.359c-10.126,0-18.663-6.912-21.139-16.267h50.877
				h14.333v-12.161C204.741,79.493,184.976,59.716,160.67,59.716z M139.686,97.66c2.647-9.084,11.049-15.746,20.984-15.746
				c9.935,0,18.339,6.662,20.99,15.746H139.686z"/>
			<polygon fill="#FFFFFF" points="262.637,61.901 245.806,109.96 228.971,61.901 200.906,61.901 233.305,154.421 258.306,154.421 
				290.702,61.901 			"/>
			<path fill="#FFFFFF" d="M116.182,147.563l-15.181-43.353c0.013-0.013,0.023-0.013,0.036-0.022
				c0.521-0.317,1.031-0.642,1.54-0.969c0.171-0.106,0.334-0.203,0.495-0.311l-0.026,0.008c8.664-5.823,14.572-14.57,14.572-28.987
				c0-5.714-1.143-10.779-3.097-15.343c-6.367-13.887-21.226-20.252-40.985-20.252H55.581H37.325h-8.192H19.074v21.882h10.059
				v94.205h26.448v-42.448h16.983c0,0,1.134-0.017,3.023-0.188l0.621,1.773h-0.005l14.31,40.863h28.064l-2.401-6.857H116.182z
				 M73.535,91.403H55.581V60.216h17.954c11.601,0,17.634,5.389,17.634,15.84C91.168,86.338,84.64,91.403,73.535,91.403z"/>
		</g>
		<path fill="#FFFFFF" d="M471.085,122.923c-8.681,0-15.744,7.059-15.744,15.744c0,8.679,7.063,15.754,15.744,15.754
			c8.687,0,15.754-7.075,15.754-15.754C486.839,129.981,479.772,122.923,471.085,122.923z M464.009,147.031v1.991v1.006
			c-3.79-2.369-6.314-6.582-6.314-11.361c0-2.34,0.602-4.533,1.661-6.453h2.853h1.801V147.031z M471.085,152.062
			c-0.804,0-1.596-0.076-2.355-0.215v-2.824v-1.991v-5.583h3.029c0,0,0.201,0,0.532-0.036l0.114,0.317h-0.004l2.564,7.293
			l0.764,2.202C474.285,151.767,472.72,152.062,471.085,152.062z M468.73,137.787v-5.573h3.197c2.072,0,3.151,0.963,3.151,2.834
			c0,1.826-1.167,2.739-3.151,2.739H468.73z M479.874,148.759l-0.334-0.954l-2.706-7.737c0.021-0.023,0.057-0.031,0.077-0.042
			c0,0,0.005-0.011,0.01-0.011c0.093-0.057,0.186-0.123,0.282-0.174h-0.01c1.554-1.043,2.602-2.608,2.602-5.187
			c0-1.008-0.2-1.911-0.55-2.726c-1.141-2.477-3.785-3.619-7.317-3.619h-3.197h-3.262h-1.459h-1.398
			c2.312-1.899,5.265-3.028,8.475-3.028c7.39,0,13.397,5.994,13.397,13.386C484.483,142.695,482.696,146.306,479.874,148.759z"/>
	</g>
</g>
</svg>
