<?xml version="1.0" encoding="utf-8"?>
<!-- Generator: Adobe Illustrator 16.0.0, SVG Export Plug-In . SVG Version: 6.00 Build 0)  -->
<!DOCTYPE svg PUBLIC "-//W3C//DTD SVG 1.1//EN" "http://www.w3.org/Graphics/SVG/1.1/DTD/svg11.dtd">
<svg version="1.1" id="圖層_1" xmlns="http://www.w3.org/2000/svg" xmlns:xlink="http://www.w3.org/1999/xlink" x="0px" y="0px"
	 width="259.677px" height="198.425px" viewBox="0 0 259.677 198.425" enable-background="new 0 0 259.677 198.425"
	 xml:space="preserve">
<g>
	<g>
		<rect x="168.112" y="96.266" fill="#FFFFFF" width="21.83" height="93.461"/>
		<path fill="#FFFFFF" d="M123.75,116.671c-20.173,0-36.586,16.41-36.586,36.582c0,20.177,16.413,36.588,36.586,36.588
			c20.175,0,36.584-16.411,36.584-36.588C160.335,133.081,143.925,116.671,123.75,116.671z M123.75,169.659
			c-9.046,0-16.403-7.359-16.403-16.406c0-9.043,7.357-16.402,16.403-16.402c9.044,0,16.402,7.359,16.402,16.402
			C140.152,162.3,132.795,169.659,123.75,169.659z"/>
		<path fill="#FFFFFF" d="M238.039,149.878l-8.352-18.161h-0.734h-9.406v-0.747v-16.514v-18.19h-21.829v18.19v16.514V147.4v20.229
			c0,14.276,7.282,21.947,21.829,22.098v-24.615v-15.234h9.406H238.039z"/>
		<path fill="#FFFFFF" d="M125.387,26.627c-20.172,0-36.585,16.411-36.585,36.583v0.003v5.442
			c0.001,20.173,16.414,36.584,36.585,36.584c10.089,0,19.233-4.102,25.859-10.728l-0.024-0.023c1.22-1.203,2.38-2.464,3.417-3.826
			l-14.641-11.177c-0.555,0.727-1.167,1.407-1.825,2.042c-3.285,3.264-7.802,5.282-12.787,5.282c-8.403,0-15.491-5.74-17.549-13.505
			h42.236h11.898V63.212v-0.003C161.972,43.038,145.562,26.627,125.387,26.627z M107.963,58.125
			c2.203-7.542,9.176-13.069,17.424-13.069c8.245,0,15.221,5.527,17.427,13.069H107.963z"/>
		<polygon fill="#FFFFFF" points="67.147,113.038 53.176,152.938 39.202,113.038 15.906,113.038 42.798,189.841 63.551,189.841 
			90.443,113.038 		"/>
		<path fill="#FFFFFF" d="M16.194,105.238H38.15V70.003h14.097c0,0,0.939-0.016,2.515-0.151l0.511,1.468l-0.001,0.003l11.876,33.916
			h23.296l-1.992-5.689h0.004L75.855,63.563c0.008-0.006,0.017-0.013,0.024-0.016c0.437-0.262,0.864-0.533,1.284-0.808
			c0.137-0.091,0.278-0.167,0.411-0.259l-0.022,0.004c7.195-4.835,12.098-12.089,12.098-24.059c0-4.747-0.95-8.947-2.575-12.738
			C81.791,14.168,69.458,8.882,53.059,8.882H38.15H22.997h-6.803h-8.35v18.161h8.35V105.238z M53.059,27.043
			c9.622,0,14.635,4.471,14.635,13.147c0,8.536-5.421,12.74-14.635,12.74H38.15V27.043H53.059z"/>
		<path fill="#FFFFFF" d="M240.352,163.579c-7.209,0-13.072,5.866-13.072,13.074c0,7.211,5.863,13.074,13.072,13.074
			c7.208,0,13.075-5.863,13.075-13.074C253.426,169.445,247.56,163.579,240.352,163.579z M234.474,183.596v1.655v0.833
			c-3.145-1.967-5.24-5.457-5.24-9.431c0-1.939,0.501-3.766,1.379-5.354h2.369h1.493V183.596z M240.352,187.771
			c-0.669,0-1.323-0.063-1.962-0.176v-2.345v-1.655v-4.631h2.516c0,0,0.168-0.002,0.449-0.029l0.093,0.264h-0.003l2.123,6.052
			l0.64,1.83C243.004,187.527,241.708,187.771,240.352,187.771z M238.389,175.918v-4.619h2.66c1.719,0,2.611,0.799,2.611,2.345
			c0,1.525-0.965,2.274-2.611,2.274H238.389z M247.646,185.034l-0.281-0.799h0.003l-2.25-6.418c0.022-0.017,0.044-0.027,0.065-0.041
			c0.002,0,0.003-0.002,0.008-0.002c0.077-0.048,0.156-0.101,0.234-0.153h-0.005c1.285-0.862,2.158-2.153,2.158-4.289
			c0-0.85-0.167-1.596-0.457-2.274c-0.942-2.056-3.144-3.001-6.072-3.001h-2.66h-2.702h-1.213h-1.163
			c1.919-1.573,4.37-2.521,7.04-2.521c6.129,0,11.116,4.988,11.116,11.117C251.468,179.996,249.986,182.994,247.646,185.034z"/>
	</g>
</g>
</svg>
