
<svg width="758px" height="173px" viewBox="0 0 758 173" version="1.1" xmlns="http://www.w3.org/2000/svg" xmlns:xlink="http://www.w3.org/1999/xlink">
    <!-- Generator: Sketch 45.2 (43514) - http://www.bohemiancoding.com/sketch -->
    <desc>Created with Sketch.</desc>
    <defs></defs>
    <g id="Page-1" stroke="none" stroke-width="1" fill="none" fill-rule="evenodd">
        <g id="Group" transform="translate(-69.000000, -30.000000)">
            <g id="white-revolt" transform="translate(68.389910, 30.000000)">
                <g id="transparent-R-red-background">
                    <path d="M259.385356,147.181724 L259.385356,130.078365 C259.385356,128.470357 258.034574,127.154714 256.533707,127.154714 L194.848036,127.154714 L194.848036,98.6491165 L250.530235,98.6491165 C252.18119,98.6491165 253.531971,97.3334735 253.531971,95.7254654 L253.531971,78.6221067 C253.531971,77.0140986 252.18119,75.8446382 250.530235,75.8446382 L194.848036,75.8446382 L194.848036,47.1928577 L253.531971,47.1928577 C255.182925,47.1928577 256.533707,46.0233973 256.533707,44.4153892 L256.533707,27.3120305 C256.533707,25.7040224 255.182925,24.3883794 253.531971,24.3883794 L174.436232,24.3883794 C172.785278,24.3883794 171.434496,25.7040224 171.434496,27.3120305 L171.434496,147.181724 C171.434496,148.789732 172.785278,150.105375 174.436232,150.105375 L256.533707,150.105375 C258.034574,150.105375 259.385356,148.789732 259.385356,147.181724 Z" id="Path" fill="#FFFFFF"></path>
                    <path d="M376.18199,27.458213 C376.18199,25.7040224 374.831209,24.3883794 373.180254,24.3883794 L355.16984,24.3883794 C353.819059,24.3883794 352.768451,25.2654747 352.318191,26.5811177 L352.318191,26.8734828 L332.656821,102.888411 L313.145538,26.8734828 L313.145538,26.5811177 C312.695278,25.2654747 311.64467,24.3883794 310.293889,24.3883794 L292.133388,24.3883794 C290.63252,24.3883794 289.281739,25.7040224 289.281739,27.458213 L289.281739,28.0429432 C289.281739,28.1891258 289.431825,28.1891258 289.431825,28.3353083 L320.349704,147.912637 C320.649878,149.22828 321.700485,150.105375 323.051267,150.105375 L342.412462,150.105375 C343.613157,150.105375 344.813851,149.22828 345.114025,148.05882 C345.114025,147.912637 345.264111,147.766454 345.264111,147.620272 L376.031904,28.3353083 C376.18199,28.0429432 376.18199,27.7505781 376.18199,27.458213 L376.18199,27.458213 Z" id="Path" fill="#FFFFFF"></path>
                    <path d="M471.658749,150.105375 C436.088179,150.105375 407.121429,121.892142 407.121429,87.2468773 C407.121429,52.6016122 436.088179,24.3883794 471.658749,24.3883794 C507.229318,24.3883794 536.196069,52.6016122 536.196069,87.2468773 C536.196069,121.892142 507.229318,150.105375 471.658749,150.105375 Z M471.658749,47.1928577 C448.995643,47.1928577 430.534968,65.1733118 430.534968,87.2468773 C430.534968,109.320443 448.995643,127.154714 471.658749,127.154714 C494.321854,127.154714 512.632442,109.320443 512.632442,87.2468773 C512.632442,65.1733118 494.321854,47.1928577 471.658749,47.1928577 Z" id="Combined-Shape" fill="#FFFFFF"></path>
                    <path d="M643.124639,147.181724 L643.124639,130.078365 C643.124639,128.470357 641.473685,127.154714 639.37247,127.154714 L596.147474,127.154714 L596.147474,27.8967607 C596.147474,25.9963875 594.94678,24.3883794 593.295825,24.3883794 L575.735671,24.3883794 C574.084716,24.3883794 572.733935,25.9963875 572.733935,27.8967607 L572.733935,147.181724 C572.733935,148.789732 574.084716,149.959193 575.735671,149.959193 L639.37247,149.959193 C641.473685,149.959193 643.124639,148.789732 643.124639,147.181724 Z" id="Path" fill="#FFFFFF"></path>
                    <path d="M758.601272,44.2692066 L758.601272,27.1658479 C758.601272,25.5578398 756.950317,24.3883794 754.999189,24.3883794 L673.652149,24.3883794 C672.001194,24.3883794 670.650413,25.5578398 670.650413,27.1658479 L670.650413,44.2692066 C670.650413,45.8772147 672.001194,47.1928577 673.652149,47.1928577 L702.919073,47.1928577 L702.919073,146.450811 C702.919073,148.351185 704.269854,149.959193 705.770722,149.959193 L723.480963,149.959193 C724.981831,149.959193 726.332612,148.351185 726.332612,146.450811 L726.332612,47.1928577 L754.999189,47.1928577 C756.950317,47.1928577 758.601272,45.8772147 758.601272,44.2692066 Z" id="Path" fill="#FFFFFF"></path>
                    <g id="Group-2" transform="translate(0.660195, 0.000000)">
                        <rect id="Rectangle-2" fill="#FF0000" x="0.0576429317" y="0.5368365" width="137.655466" height="171.733158"></rect>
                        <path d="M111.46725,143.952239 C111.916356,144.681278 111.916356,145.118701 111.916356,145.556124 C111.916356,147.305816 110.71874,148.618086 109.072019,148.618086 L89.0119585,148.618086 C87.9640449,148.618086 87.0658332,148.034855 86.6167274,147.305816 L86.3173235,146.868393 L60.7182911,102.834462 L57.5745502,97.2937692 L46.3469044,97.2937692 L46.3469044,145.701932 C46.3469044,147.305816 44.9995869,148.618086 43.5025675,148.618086 L25.98744,148.618086 C24.3407187,148.618086 22.9934012,147.305816 22.9934012,145.701932 L22.9934012,74.5477652 L44.4007792,74.5477652 L24.4904206,40.4287591 L22.9934012,37.6584125 L22.9934012,26.1396028 C22.9934012,24.6815256 24.3407187,23.3692561 25.98744,23.3692561 L69.7004077,23.3692561 C83.3232846,23.3692561 95.1497382,27.0144491 103.533047,34.0132195 C111.766654,40.7203746 116.557116,50.343684 116.557116,60.4044165 C116.557116,75.7142269 105.32947,91.3156527 83.6226885,95.9814997 L84.3711982,97.2937692 L87.664641,102.834462 L111.46725,143.952239 Z" id="Combined-Shape" fill="#000000"></path>
                        <path d="M68.0536863,69.1528796 L71.1974271,74.5477652 C72.6944466,74.5477652 74.191466,74.4019574 75.5387835,74.2561497 C87.664641,72.6522648 93.053911,66.2367252 93.053911,60.4044165 C93.053911,53.5514538 85.8682177,46.1152601 69.7004077,46.1152601 L54.7302133,46.1152601 L68.0536863,69.1528796 Z" id="Path" fill="#FF0000"></path>
                    </g>
                </g>
            </g>
        </g>
    </g>
</svg>