<?xml version="1.0" encoding="utf-8"?>
<!-- Generator: Adobe Illustrator 16.0.0, SVG Export Plug-In . SVG Version: 6.00 Build 0)  -->
<!DOCTYPE svg PUBLIC "-//W3C//DTD SVG 1.1//EN" "http://www.w3.org/Graphics/SVG/1.1/DTD/svg11.dtd">
<svg version="1.1" id="圖層_1" xmlns="http://www.w3.org/2000/svg" xmlns:xlink="http://www.w3.org/1999/xlink" x="0px" y="0px"
	 width="198.425px" height="198.425px" viewBox="0 0 198.425 198.425" enable-background="new 0 0 198.425 198.425"
	 xml:space="preserve">
<path fill="#FFFFFF" d="M180.715,93.548h-1.287h-16.387h-12.7h-2.944V82.069v-1.3V69.101h0.041h10.534h1.033h15.354h15.837
	L175.64,37.436h-1.28h-15.354h-1.033h-10.534h-0.041V20.292v-5.049h-38.051v5.049v17.144H89.071V20.292v-5.049H51.027v5.049v17.144
	H40.453h-1.04H24.072h-1.287L8.228,69.101h15.844h15.341h1.04h10.574v11.667v1.3v11.479h-1.254H35.39H18.997h-1.288l-14.55,31.661
	h15.838H35.39h14.382h1.254v14.638v0.422v42.913c25.352-0.255,38.044-13.638,38.044-38.507v-19.466h20.276v19.466
	c0,24.869,12.7,38.252,38.051,38.507v-42.913v-0.422v-14.638h2.944h12.7h16.387h15.838L180.715,93.548z M89.071,80.769V69.101
	h20.276v11.667v12.78H89.071V80.769z"/>
</svg>
