
<svg width="784px" height="170px" viewBox="0 0 784 170" version="1.1" xmlns="http://www.w3.org/2000/svg" xmlns:xlink="http://www.w3.org/1999/xlink">
    <!-- Generator: Sketch 45.2 (43514) - http://www.bohemiancoding.com/sketch -->
    <desc>Created with Sketch.</desc>
    <defs></defs>
    <g id="Page-1" stroke="none" stroke-width="1" fill="none" fill-rule="evenodd">
        <g id="Artboard" transform="translate(-714.000000, -984.000000)">
            <g id="black-R-dark-background" transform="translate(713.000000, 983.000000)">
                <path d="M283.15046,147.151876 L283.15046,130.051986 C283.15046,128.444304 281.835084,127.128928 280.373555,127.128928 L220.30471,127.128928 L220.30471,98.6291107 L274.527439,98.6291107 C276.135121,98.6291107 277.450497,97.3137346 277.450497,95.7060526 L277.450497,78.6061624 C277.450497,76.9984804 276.135121,75.8292571 274.527439,75.8292571 L220.30471,75.8292571 L220.30471,47.1832871 L277.450497,47.1832871 C279.058179,47.1832871 280.373555,46.0140639 280.373555,44.4063819 L280.373555,27.3064917 C280.373555,25.6988097 279.058179,24.3834335 277.450497,24.3834335 L200.427914,24.3834335 C198.820232,24.3834335 197.504856,25.6988097 197.504856,27.3064917 L197.504856,147.151876 C197.504856,148.759558 198.820232,150.074934 200.427914,150.074934 L280.373555,150.074934 C281.835084,150.074934 283.15046,148.759558 283.15046,147.151876 Z" id="Path" fill="#FFFFFF"></path>
                <path d="M400.537597,27.4526446 C400.537597,25.6988097 399.222221,24.3834335 397.614539,24.3834335 L380.07619,24.3834335 C378.760814,24.3834335 377.737743,25.260351 377.299285,26.5757271 L377.299285,26.8680329 L358.153254,102.867545 L339.153376,26.8680329 L339.153376,26.5757271 C338.714917,25.260351 337.691847,24.3834335 336.37647,24.3834335 L318.691969,24.3834335 C317.23044,24.3834335 315.915063,25.6988097 315.915063,27.4526446 L315.915063,28.0372562 C315.915063,28.1834091 316.061216,28.1834091 316.061216,28.329562 L346.168715,147.882641 C346.461021,149.198017 347.484092,150.074934 348.799468,150.074934 L367.653193,150.074934 C368.822416,150.074934 369.991639,149.198017 370.283945,148.028794 C370.283945,147.882641 370.430098,147.736488 370.430098,147.590335 L400.391444,28.329562 C400.537597,28.0372562 400.537597,27.7449504 400.537597,27.4526446 L400.537597,27.4526446 Z" id="Path" fill="#FFFFFF"></path>
                <path d="M497.836154,150.074934 C463.197915,150.074934 434.990403,121.867423 434.990403,87.2291839 C434.990403,52.5909447 463.197915,24.3834335 497.836154,24.3834335 C532.474393,24.3834335 560.681904,52.5909447 560.681904,87.2291839 C560.681904,121.867423 532.474393,150.074934 497.836154,150.074934 Z M497.836154,47.1832871 C475.767065,47.1832871 457.790257,65.1600948 457.790257,87.2291839 C457.790257,109.298273 475.767065,127.128928 497.836154,127.128928 C519.905243,127.128928 537.735898,109.298273 537.735898,87.2291839 C537.735898,65.1600948 519.905243,47.1832871 497.836154,47.1832871 Z" id="Combined-Shape" fill="#FFFFFF"></path>
                <path d="M669.04943,147.151876 L669.04943,130.051986 C669.04943,128.444304 667.441748,127.128928 665.395608,127.128928 L623.30357,127.128928 L623.30357,27.8911033 C623.30357,25.9911155 622.134347,24.3834335 620.526665,24.3834335 L603.426775,24.3834335 C601.819093,24.3834335 600.503717,25.9911155 600.503717,27.8911033 L600.503717,147.151876 C600.503717,148.759558 601.819093,149.928781 603.426775,149.928781 L665.395608,149.928781 C667.441748,149.928781 669.04943,148.759558 669.04943,147.151876 Z" id="Path" fill="#FFFFFF"></path>
                <path d="M784.820432,44.260229 L784.820432,27.1603388 C784.820432,25.5526568 783.21275,24.3834335 781.312762,24.3834335 L702.097886,24.3834335 C700.490204,24.3834335 699.174828,25.5526568 699.174828,27.1603388 L699.174828,44.260229 C699.174828,45.867911 700.490204,47.1832871 702.097886,47.1832871 L730.597703,47.1832871 L730.597703,146.421112 C730.597703,148.321099 731.913079,149.928781 733.374608,149.928781 L750.620651,149.928781 C752.08218,149.928781 753.397557,148.321099 753.397557,146.421112 L753.397557,47.1832871 L781.312762,47.1832871 C783.21275,47.1832871 784.820432,45.867911 784.820432,44.260229 Z" id="Path" fill="#FFFFFF"></path>
                <g id="SoMe-logo" transform="translate(0.946108, 0.914715)">
                    <rect id="Rectangle-2" fill="#FF0000" x="0.257872512" y="0.527203089" width="168.4196" height="168.651444"></rect>
                    <g id="white-R" transform="translate(40.315106, 22.949900)" fill="#000000">
                        <path d="M87.9593306,122.372065 L88.108162,122.668007 C88.4058247,123.11192 88.4058247,123.555833 88.4058247,123.999746 C88.4058247,125.775399 87.2151739,127.107139 85.578029,127.107139 L65.6346274,127.107139 C64.5928079,127.107139 63.6998198,126.515254 63.2533257,125.775399 L62.955663,125.331486 L37.5055014,80.6442265 L34.3800429,75.0213263 L23.2176913,75.0213263 L23.2176913,124.147718 C23.2176913,125.775399 21.8782091,127.107139 20.3898956,127.107139 L2.97662709,127.107139 C1.33948219,127.107139 1.83595552e-15,125.775399 1.83595552e-15,124.147718 L1.83595552e-15,51.9378413 L21.2828837,51.9378413 L1.48831355,17.3126138 L1.48831355,17.1646427 L0,14.5011637 L0,2.8114501 C0,1.33173952 1.33948219,0 2.97662709,0 L46.4353827,0 C59.9790359,0 71.736713,3.69927645 80.0712688,10.8018872 C88.2569933,17.6085559 93.0195967,27.3746457 93.0195967,37.5846487 C93.0195967,53.1216098 81.8572451,68.954513 60.2766987,73.6895868 L61.0208554,75.0213263 L64.2951452,80.6442265 L87.9593306,122.372065 Z M44.7982378,46.4629122 L47.9236962,51.9378413 C49.4120098,51.9378413 50.9003233,51.7898702 52.2398055,51.6418992 C64.2951452,50.0142176 69.653074,43.503491 69.653074,37.5846487 C69.653074,30.630009 62.509169,23.083485 46.4353827,23.083485 L31.5522472,23.083485 L44.7982378,46.4629122 Z" id="Combined-Shape"></path>
                    </g>
                </g>
            </g>
        </g>
    </g>
</svg>