<?xml version="1.0" encoding="UTF-8"?>
<svg width="193px" height="169px" viewBox="0 0 193 169" version="1.1" xmlns="http://www.w3.org/2000/svg" xmlns:xlink="http://www.w3.org/1999/xlink">
    <!-- Generator: Sketch 46.2 (44496) - http://www.bohemiancoding.com/sketch -->
    <title>Shape</title>
    <desc>Created with Sketch.</desc>
    <defs></defs>
    <g id="Page-1" stroke="none" stroke-width="1" fill="none" fill-rule="evenodd">
        <g id="revolt-logo" fill-rule="nonzero" fill="#000000">
            <path d="M177.715,78.548 L176.428,78.548 L160.041,78.548 L147.341,78.548 L144.397,78.548 L144.397,67.069 L144.397,65.769 L144.397,54.101 L144.438,54.101 L154.972,54.101 L156.005,54.101 L171.359,54.101 L187.196,54.101 L172.64,22.436 L171.36,22.436 L156.006,22.436 L154.973,22.436 L144.439,22.436 L144.398,22.436 L144.398,5.292 L144.398,0.243 L106.347,0.243 L106.347,5.292 L106.347,22.436 L86.071,22.436 L86.071,5.292 L86.071,0.243 L48.027,0.243 L48.027,5.292 L48.027,22.436 L37.453,22.436 L36.413,22.436 L21.072,22.436 L19.785,22.436 L5.228,54.101 L21.072,54.101 L36.413,54.101 L37.453,54.101 L48.027,54.101 L48.027,65.768 L48.027,67.068 L48.027,78.547 L46.773,78.547 L32.39,78.547 L15.997,78.547 L14.709,78.547 L0.159,110.208 L15.997,110.208 L32.39,110.208 L46.772,110.208 L48.026,110.208 L48.026,124.846 L48.026,125.268 L48.026,168.181 C73.378,167.926 86.07,154.543 86.07,129.674 L86.07,110.208 L106.346,110.208 L106.346,129.674 C106.346,154.543 119.046,167.926 144.397,168.181 L144.397,125.268 L144.397,124.846 L144.397,110.208 L147.341,110.208 L160.041,110.208 L176.428,110.208 L192.266,110.208 L177.715,78.548 Z M86.071,65.769 L86.071,54.101 L106.347,54.101 L106.347,65.768 L106.347,78.548 L86.071,78.548 L86.071,65.769 Z" id="Shape"></path>
        </g>
    </g>
</svg>